<svg width="4000" height="2328" viewBox="0 0 4000 2328" fill="none" xmlns="http://www.w3.org/2000/svg">
<g clip-path="url(#clip0_102_2)">
<g clip-path="url(#clip1_102_2)">
<rect width="4000" height="2328" fill="#0F1E45"/>
<g opacity="0.5" filter="url(#filter0_f_102_2)">
<ellipse cx="508" cy="3325.5" rx="1116" ry="2385.5" fill="#B80D57"/>
</g>
<g filter="url(#filter1_f_102_2)">
<ellipse cx="3788" cy="417" rx="1116" ry="968" fill="#E33E5A"/>
</g>
<g filter="url(#filter2_f_102_2)">
<ellipse cx="4044" cy="2798.5" rx="2340" ry="823.5" fill="#FFD868"/>
</g>
<g filter="url(#filter3_f_102_2)">
<ellipse cx="-148" cy="-459.5" rx="2340" ry="823.5" fill="#005792"/>
</g>
<g opacity="0.1">
<mask id="path-6-inside-1_102_2" fill="white">
<path fill-rule="evenodd" clip-rule="evenodd" d="M1576.99 4.40797C1563.98 17.1637 1563.76 38.057 1576.52 51.0746L1868.71 349.268C1888.81 369.78 1888.48 402.703 1867.97 422.803L1547.52 736.809C1534.5 749.565 1534.29 770.458 1547.04 783.476L1706.68 946.392C1719.44 959.409 1740.33 959.621 1753.35 946.866L2073.8 632.86C2094.31 612.76 2127.23 613.095 2147.33 633.607L2440.89 933.192C2453.65 946.209 2474.54 946.421 2487.56 933.666L2650.48 774.027C2663.49 761.271 2663.71 740.378 2650.95 727.36L2353.3 423.602C2333.2 403.09 2333.54 370.167 2354.05 350.067L2648.07 61.9604C2661.09 49.2047 2661.3 28.3113 2648.54 15.2938L2488.9 -147.622C2476.15 -160.64 2455.26 -160.852 2442.24 -148.096L2148.22 140.01C2127.71 160.11 2094.78 159.775 2074.68 139.263L1786.58 -154.757C1773.82 -167.775 1752.93 -167.987 1739.91 -155.231L1576.99 4.40797Z"/>
</mask>
<path d="M1576.52 51.0746L1569.38 58.0734L1576.52 51.0746ZM1547.04 783.476L1554.19 776.477L1547.04 783.476ZM1706.68 946.392L1699.54 953.391L1706.68 946.392ZM1753.35 946.866L1760.35 954.008L1753.35 946.866ZM2440.89 933.192L2433.75 940.191L2440.89 933.192ZM2487.56 933.666L2494.56 940.808L2487.56 933.666ZM2650.48 774.027L2643.48 766.884L2650.48 774.027ZM2650.95 727.36L2643.81 734.359L2650.95 727.36ZM2648.07 61.9604L2655.07 69.1029L2648.07 61.9604ZM2442.24 -148.096L2449.24 -140.954L2442.24 -148.096ZM1786.58 -154.757L1793.72 -161.756L1786.58 -154.757ZM2074.68 139.263L2081.82 132.264L2074.68 139.263ZM2353.3 423.602L2346.16 430.601L2353.3 423.602ZM2354.05 350.067L2361.05 357.21L2354.05 350.067ZM2073.8 632.86L2080.8 640.003L2073.8 632.86ZM2147.33 633.607L2140.19 640.606L2147.33 633.607ZM1868.71 349.268L1861.57 356.267L1868.71 349.268ZM1583.66 44.0757C1574.77 35.0029 1574.92 20.4409 1583.99 11.5505L1569.99 -2.73456C1553.03 13.8865 1552.76 41.1112 1569.38 58.0734L1583.66 44.0757ZM1875.86 342.269L1583.66 44.0757L1569.38 58.0734L1861.57 356.267L1875.86 342.269ZM1554.52 743.952L1874.97 429.946L1860.97 415.661L1540.52 729.666L1554.52 743.952ZM1554.19 776.477C1545.29 767.404 1545.44 752.842 1554.52 743.952L1540.52 729.666C1523.56 746.288 1523.28 773.512 1539.9 790.474L1554.19 776.477ZM1713.82 939.393L1554.19 776.477L1539.9 790.474L1699.54 953.391L1713.82 939.393ZM1746.35 939.723C1737.28 948.614 1722.71 948.466 1713.82 939.393L1699.54 953.391C1716.16 970.353 1743.38 970.629 1760.35 954.008L1746.35 939.723ZM2066.8 625.718L1746.35 939.723L1760.35 954.008L2080.8 640.003L2066.8 625.718ZM2448.04 926.193L2154.48 626.608L2140.19 640.606L2433.75 940.191L2448.04 926.193ZM2480.56 926.523C2471.49 935.414 2456.93 935.266 2448.04 926.193L2433.75 940.191C2450.37 957.153 2477.6 957.429 2494.56 940.808L2480.56 926.523ZM2643.48 766.884L2480.56 926.523L2494.56 940.808L2657.47 781.169L2643.48 766.884ZM2643.81 734.359C2652.7 743.432 2652.55 757.994 2643.48 766.884L2657.47 781.169C2674.44 764.548 2674.71 737.323 2658.09 720.361L2643.81 734.359ZM2346.16 430.601L2643.81 734.359L2658.09 720.361L2360.44 416.604L2346.16 430.601ZM2641.07 54.8179L2347.05 342.925L2361.05 357.21L2655.07 69.1029L2641.07 54.8179ZM2641.4 22.2926C2650.29 31.3655 2650.14 45.9276 2641.07 54.8179L2655.07 69.1029C2672.03 52.4819 2672.31 25.2572 2655.69 8.2949L2641.4 22.2926ZM2481.76 -140.623L2641.4 22.2926L2655.69 8.2949L2496.05 -154.621L2481.76 -140.623ZM2449.24 -140.954C2458.31 -149.844 2472.87 -149.696 2481.76 -140.623L2496.05 -154.621C2479.43 -171.583 2452.2 -171.86 2435.24 -155.239L2449.24 -140.954ZM2155.22 147.153L2449.24 -140.954L2435.24 -155.239L2141.22 132.867L2155.22 147.153ZM1779.43 -147.758L2067.54 146.262L2081.82 132.264L1793.72 -161.756L1779.43 -147.758ZM1746.91 -148.089C1755.98 -156.979 1770.54 -156.831 1779.43 -147.758L1793.72 -161.756C1777.1 -178.718 1749.87 -178.995 1732.91 -162.374L1746.91 -148.089ZM1583.99 11.5505L1746.91 -148.089L1732.91 -162.374L1569.99 -2.73456L1583.99 11.5505ZM2141.22 132.867C2124.65 149.102 2098.06 148.832 2081.82 132.264L2067.54 146.262C2091.51 170.719 2130.76 171.118 2155.22 147.153L2141.22 132.867ZM2360.44 416.604C2344.21 400.036 2344.48 373.444 2361.05 357.21L2347.05 342.925C2322.59 366.89 2322.19 406.144 2346.16 430.601L2360.44 416.604ZM2080.8 640.003C2097.37 623.768 2123.96 624.038 2140.19 640.606L2154.48 626.608C2130.51 602.151 2091.26 601.752 2066.8 625.718L2080.8 640.003ZM1861.57 356.267C1877.81 372.835 1877.54 399.426 1860.97 415.661L1874.97 429.946C1899.42 405.98 1899.82 366.726 1875.86 342.269L1861.57 356.267Z" fill="white" mask="url(#path-6-inside-1_102_2)"/>
<mask id="path-8-inside-2_102_2" fill="white">
<path fill-rule="evenodd" clip-rule="evenodd" d="M2504.07 376.406C2491.05 389.162 2490.84 410.055 2503.59 423.073L2795.79 721.266C2815.89 741.778 2815.55 774.701 2795.04 794.801L2474.59 1108.81C2461.57 1121.56 2461.36 1142.46 2474.12 1155.47L2633.76 1318.39C2646.51 1331.41 2667.4 1331.62 2680.42 1318.86L3000.87 1004.86C3021.39 984.758 3054.31 985.093 3074.41 1005.61L3367.97 1305.19C3380.72 1318.21 3401.62 1318.42 3414.63 1305.66L3577.55 1146.02C3590.57 1133.27 3590.78 1112.38 3578.02 1099.36L3280.38 795.6C3260.28 775.088 3260.61 742.165 3281.12 722.065L3575.14 433.958C3588.16 421.203 3588.37 400.309 3575.62 387.292L3415.98 224.376C3403.22 211.358 3382.33 211.146 3369.31 223.902L3075.29 512.008C3054.78 532.108 3021.86 531.773 3001.76 511.261L2713.65 217.241C2700.89 204.223 2680 204.011 2666.98 216.767L2504.07 376.406Z"/>
</mask>
<path d="M2503.59 423.073L2496.45 430.071L2496.45 430.071L2503.59 423.073ZM2504.07 376.406L2497.07 369.263L2504.07 376.406ZM2474.59 1108.81L2481.59 1115.95L2474.59 1108.81ZM2474.12 1155.47L2466.97 1162.47L2474.12 1155.47ZM2633.76 1318.39L2640.9 1311.39L2633.76 1318.39ZM3414.63 1305.66L3407.63 1298.52L3414.63 1305.66ZM3577.55 1146.02L3584.55 1153.17L3577.55 1146.02ZM3578.02 1099.36L3570.88 1106.36L3578.02 1099.36ZM3575.14 433.958L3568.14 426.816L3575.14 433.958ZM3369.31 223.902L3362.31 216.759L3369.31 223.902ZM2666.98 216.767L2673.98 223.909L2666.98 216.767ZM3280.38 795.6L3273.23 802.599L3280.38 795.6ZM3281.12 722.065L3274.12 714.922L3281.12 722.065ZM2795.79 721.266L2802.93 714.267L2802.93 714.267L2795.79 721.266ZM2510.74 416.074C2501.85 407.001 2501.99 392.439 2511.07 383.548L2497.07 369.263C2480.11 385.884 2479.83 413.109 2496.45 430.071L2510.74 416.074ZM2802.93 714.267L2510.74 416.074L2496.45 430.071L2788.65 728.265L2802.93 714.267ZM2481.59 1115.95L2802.04 801.944L2788.04 787.659L2467.59 1101.66L2481.59 1115.95ZM2481.26 1148.47C2472.37 1139.4 2472.52 1124.84 2481.59 1115.95L2467.59 1101.66C2450.63 1118.29 2450.35 1145.51 2466.97 1162.47L2481.26 1148.47ZM2640.9 1311.39L2481.26 1148.47L2466.97 1162.47L2626.61 1325.39L2640.9 1311.39ZM2673.42 1311.72C2664.35 1320.61 2649.79 1320.46 2640.9 1311.39L2626.61 1325.39C2643.23 1342.35 2670.46 1342.63 2687.42 1326.01L2673.42 1311.72ZM2993.87 997.716L2673.42 1311.72L2687.42 1326.01L3007.87 1012L2993.87 997.716ZM3375.11 1298.19L3081.55 998.606L3067.27 1012.6L3360.82 1312.19L3375.11 1298.19ZM3407.63 1298.52C3398.56 1307.41 3384 1307.26 3375.11 1298.19L3360.82 1312.19C3377.45 1329.15 3404.67 1329.43 3421.63 1312.81L3407.63 1298.52ZM3570.55 1138.88L3407.63 1298.52L3421.63 1312.81L3584.55 1153.17L3570.55 1138.88ZM3570.88 1106.36C3579.77 1115.43 3579.62 1129.99 3570.55 1138.88L3584.55 1153.17C3601.51 1136.55 3601.79 1109.32 3585.17 1092.36L3570.88 1106.36ZM3273.23 802.599L3570.88 1106.36L3585.17 1092.36L3287.52 788.601L3273.23 802.599ZM3568.14 426.816L3274.12 714.922L3288.12 729.208L3582.14 441.101L3568.14 426.816ZM3568.47 394.291C3577.37 403.363 3577.22 417.925 3568.14 426.816L3582.14 441.101C3599.1 424.48 3599.38 397.255 3582.76 380.293L3568.47 394.291ZM3408.84 231.375L3568.47 394.291L3582.76 380.293L3423.12 217.377L3408.84 231.375ZM3376.31 231.044C3385.38 222.154 3399.95 222.302 3408.84 231.375L3423.12 217.377C3406.5 200.414 3379.27 200.138 3362.31 216.759L3376.31 231.044ZM3082.29 519.15L3376.31 231.044L3362.31 216.759L3068.29 504.865L3082.29 519.15ZM2706.51 224.24L2994.61 518.26L3008.9 504.262L2720.79 210.242L2706.51 224.24ZM2673.98 223.909C2683.05 215.019 2697.62 215.167 2706.51 224.24L2720.79 210.242C2704.17 193.28 2676.95 193.003 2659.98 209.624L2673.98 223.909ZM2511.07 383.548L2673.98 223.909L2659.98 209.624L2497.07 369.263L2511.07 383.548ZM3068.29 504.865C3051.72 521.1 3025.13 520.83 3008.9 504.262L2994.61 518.26C3018.58 542.717 3057.83 543.116 3082.29 519.15L3068.29 504.865ZM3287.52 788.601C3271.28 772.034 3271.55 745.442 3288.12 729.208L3274.12 714.922C3249.67 738.888 3249.27 778.142 3273.23 802.599L3287.52 788.601ZM3007.87 1012C3024.44 995.766 3051.03 996.036 3067.27 1012.6L3081.55 998.606C3057.59 974.149 3018.33 973.75 2993.87 997.716L3007.87 1012ZM2788.65 728.265C2804.88 744.832 2804.61 771.424 2788.04 787.659L2802.04 801.944C2826.5 777.978 2826.9 738.724 2802.93 714.267L2788.65 728.265Z" fill="white" mask="url(#path-8-inside-2_102_2)"/>
<mask id="path-10-inside-3_102_2" fill="white">
<path fill-rule="evenodd" clip-rule="evenodd" d="M3431.14 748.404C3418.12 761.16 3417.91 782.053 3430.67 795.071L3722.86 1093.26C3742.96 1113.78 3742.63 1146.7 3722.12 1166.8L3401.66 1480.81C3388.65 1493.56 3388.43 1514.45 3401.19 1527.47L3560.83 1690.39C3573.59 1703.41 3594.48 1703.62 3607.5 1690.86L3927.95 1376.86C3948.46 1356.76 3981.38 1357.09 4001.48 1377.6L4295.04 1677.19C4307.8 1690.21 4328.69 1690.42 4341.71 1677.66L4504.62 1518.02C4517.64 1505.27 4517.85 1484.37 4505.1 1471.36L4207.45 1167.6C4187.35 1147.09 4187.68 1114.16 4208.2 1094.06L4502.22 805.957C4515.23 793.201 4515.45 772.307 4502.69 759.29L4343.05 596.374C4330.3 583.356 4309.4 583.144 4296.39 595.9L4002.37 884.006C3981.85 904.106 3948.93 903.771 3928.83 883.259L3640.72 589.239C3627.97 576.221 3607.07 576.009 3594.06 588.765L3431.14 748.404Z"/>
</mask>
<path d="M3430.67 795.071L3423.52 802.07L3430.67 795.071ZM3431.14 748.404L3438.14 755.547L3431.14 748.404ZM3401.19 1527.47L3408.33 1520.47L3401.19 1527.47ZM3560.83 1690.39L3553.69 1697.39L3560.83 1690.39ZM3607.5 1690.86L3614.5 1698L3607.5 1690.86ZM4295.04 1677.19L4287.9 1684.19L4295.04 1677.19ZM4505.1 1471.36L4497.96 1478.35L4505.1 1471.36ZM4502.22 805.957L4495.22 798.814L4502.22 805.957ZM3594.06 588.765L3587.06 581.622L3594.06 588.765ZM4207.45 1167.6L4200.31 1174.6L4207.45 1167.6ZM4208.2 1094.06L4201.2 1086.92L4208.2 1094.06ZM3927.95 1376.86L3934.95 1384L3927.95 1376.86ZM4001.48 1377.6L3994.34 1384.6L4001.48 1377.6ZM3722.86 1093.26L3715.72 1100.26L3722.86 1093.26ZM3437.81 788.072C3428.92 778.999 3429.07 764.437 3438.14 755.547L3424.14 741.261C3407.18 757.883 3406.9 785.107 3423.52 802.07L3437.81 788.072ZM3730.01 1086.27L3437.81 788.072L3423.52 802.07L3715.72 1100.26L3730.01 1086.27ZM3408.66 1487.95L3729.11 1173.94L3715.12 1159.66L3394.67 1473.66L3408.66 1487.95ZM3408.33 1520.47C3399.44 1511.4 3399.59 1496.84 3408.66 1487.95L3394.67 1473.66C3377.7 1490.28 3377.43 1517.51 3394.05 1534.47L3408.33 1520.47ZM3567.97 1683.39L3408.33 1520.47L3394.05 1534.47L3553.69 1697.39L3567.97 1683.39ZM3600.5 1683.72C3591.42 1692.61 3576.86 1692.46 3567.97 1683.39L3553.69 1697.39C3570.31 1714.35 3597.53 1714.63 3614.5 1698L3600.5 1683.72ZM3920.95 1369.71L3600.5 1683.72L3614.5 1698L3934.95 1384L3920.95 1369.71ZM4302.18 1670.19L4008.63 1370.6L3994.34 1384.6L4287.9 1684.19L4302.18 1670.19ZM4334.71 1670.52C4325.64 1679.41 4311.07 1679.26 4302.18 1670.19L4287.9 1684.19C4304.52 1701.15 4331.75 1701.43 4348.71 1684.8L4334.71 1670.52ZM4497.63 1510.88L4334.71 1670.52L4348.71 1684.8L4511.62 1525.17L4497.63 1510.88ZM4497.96 1478.35C4506.85 1487.43 4506.7 1501.99 4497.63 1510.88L4511.62 1525.17C4528.59 1508.54 4528.86 1481.32 4512.24 1464.36L4497.96 1478.35ZM4200.31 1174.6L4497.96 1478.35L4512.24 1464.36L4214.59 1160.6L4200.31 1174.6ZM4495.22 798.814L4201.2 1086.92L4215.2 1101.21L4509.22 813.099L4495.22 798.814ZM4495.55 766.289C4504.44 775.362 4504.29 789.924 4495.22 798.814L4509.22 813.099C4526.18 796.478 4526.45 769.253 4509.83 752.291L4495.55 766.289ZM4335.91 603.373L4495.55 766.289L4509.83 752.291L4350.19 589.375L4335.91 603.373ZM4303.38 603.042C4312.46 594.152 4327.02 594.3 4335.91 603.373L4350.19 589.375C4333.57 572.413 4306.35 572.136 4289.39 588.757L4303.38 603.042ZM4009.36 891.148L4303.38 603.042L4289.39 588.757L3995.37 876.863L4009.36 891.148ZM3633.58 596.238L3921.69 890.258L3935.97 876.26L3647.87 582.24L3633.58 596.238ZM3601.06 595.907C3610.13 587.017 3624.69 587.165 3633.58 596.238L3647.87 582.24C3631.25 565.278 3604.02 565.001 3587.06 581.622L3601.06 595.907ZM3438.14 755.547L3601.06 595.907L3587.06 581.622L3424.14 741.261L3438.14 755.547ZM3995.37 876.863C3978.8 893.098 3952.21 892.828 3935.97 876.26L3921.69 890.258C3945.65 914.715 3984.91 915.114 4009.36 891.148L3995.37 876.863ZM4214.59 1160.6C4198.36 1144.03 4198.63 1117.44 4215.2 1101.21L4201.2 1086.92C4176.74 1110.89 4176.34 1150.14 4200.31 1174.6L4214.59 1160.6ZM3934.95 1384C3951.51 1367.76 3978.11 1368.03 3994.34 1384.6L4008.63 1370.6C3984.66 1346.15 3945.41 1345.75 3920.95 1369.71L3934.95 1384ZM3715.72 1100.26C3731.95 1116.83 3731.68 1143.42 3715.12 1159.66L3729.11 1173.94C3753.57 1149.98 3753.97 1110.72 3730.01 1086.27L3715.72 1100.26Z" fill="white" mask="url(#path-10-inside-3_102_2)"/>
<mask id="path-12-inside-4_102_2" fill="white">
<path fill-rule="evenodd" clip-rule="evenodd" d="M3818.72 -225.413C3805.7 -212.657 3805.49 -191.764 3818.24 -178.746L4110.44 119.447C4130.54 139.96 4130.21 172.883 4109.69 192.983L3789.24 506.988C3776.23 519.744 3776.01 540.637 3788.77 553.655L3948.41 716.571C3961.16 729.588 3982.06 729.801 3995.07 717.045L4315.53 403.039C4336.04 382.939 4368.96 383.273 4389.06 403.786L4682.62 703.371C4695.38 716.388 4716.27 716.6 4729.29 703.845L4892.2 544.205C4905.22 531.45 4905.43 510.556 4892.68 497.539L4595.03 193.78C4574.93 173.268 4575.26 140.345 4595.78 120.245L4889.8 -167.861C4902.81 -180.616 4903.03 -201.51 4890.27 -214.527L4730.63 -377.443C4717.87 -390.461 4696.98 -390.673 4683.96 -377.917L4389.94 -89.8111C4369.43 -69.7112 4336.51 -70.0457 4316.41 -90.5582L4028.3 -384.578C4015.55 -397.596 3994.65 -397.808 3981.64 -385.052L3818.72 -225.413Z"/>
</mask>
<path d="M3818.24 -178.746L3825.39 -185.745L3818.24 -178.746ZM3818.72 -225.413L3825.72 -218.271L3818.72 -225.413ZM3788.77 553.655L3795.91 546.656L3788.77 553.655ZM3948.41 716.571L3941.27 723.57L3948.41 716.571ZM3995.07 717.045L4002.07 724.187L3995.07 717.045ZM4682.62 703.371L4675.48 710.37L4682.62 703.371ZM4892.68 497.539L4885.54 504.538L4892.68 497.539ZM4890.27 -214.527L4883.13 -207.528L4890.27 -214.527ZM4730.63 -377.443L4737.77 -384.442L4730.63 -377.443ZM4683.96 -377.917L4690.96 -370.775L4683.96 -377.917ZM3981.64 -385.052L3974.64 -392.195L3981.64 -385.052ZM4595.03 193.78L4587.89 200.779L4595.03 193.78ZM4315.53 403.039L4322.53 410.181L4315.53 403.039ZM4389.06 403.786L4381.92 410.784L4389.06 403.786ZM3825.39 -185.745C3816.5 -194.818 3816.65 -209.38 3825.72 -218.271L3811.72 -232.556C3794.76 -215.935 3794.48 -188.71 3811.1 -171.748L3825.39 -185.745ZM4117.58 112.448L3825.39 -185.745L3811.1 -171.748L4103.3 126.446L4117.58 112.448ZM3796.24 514.131L4116.69 200.125L4102.7 185.84L3782.24 499.846L3796.24 514.131ZM3795.91 546.656C3787.02 537.583 3787.17 523.021 3796.24 514.131L3782.24 499.846C3765.28 516.467 3765.01 543.691 3781.63 560.654L3795.91 546.656ZM3955.55 709.572L3795.91 546.656L3781.63 560.654L3941.27 723.57L3955.55 709.572ZM3988.08 709.902C3979 718.793 3964.44 718.645 3955.55 709.572L3941.27 723.57C3957.89 740.532 3985.11 740.808 4002.07 724.187L3988.08 709.902ZM4308.53 395.896L3988.08 709.902L4002.07 724.187L4322.53 410.181L4308.53 395.896ZM4689.76 696.372L4396.2 396.787L4381.92 410.784L4675.48 710.37L4689.76 696.372ZM4722.29 696.702C4713.22 705.593 4698.65 705.445 4689.76 696.372L4675.48 710.37C4692.1 727.332 4719.32 727.608 4736.29 710.987L4722.29 696.702ZM4885.21 537.063L4722.29 696.702L4736.29 710.987L4899.2 551.348L4885.21 537.063ZM4885.54 504.538C4894.43 513.611 4894.28 528.173 4885.21 537.063L4899.2 551.348C4916.17 534.727 4916.44 507.502 4899.82 490.54L4885.54 504.538ZM4587.89 200.779L4885.54 504.538L4899.82 490.54L4602.17 186.781L4587.89 200.779ZM4882.8 -175.003L4588.78 113.102L4602.77 127.387L4896.79 -160.718L4882.8 -175.003ZM4883.13 -207.528C4892.02 -198.456 4891.87 -183.894 4882.8 -175.003L4896.79 -160.718C4913.76 -177.339 4914.03 -204.564 4897.41 -221.526L4883.13 -207.528ZM4723.49 -370.444L4883.13 -207.528L4897.41 -221.526L4737.77 -384.442L4723.49 -370.444ZM4690.96 -370.775C4700.04 -379.665 4714.6 -379.517 4723.49 -370.444L4737.77 -384.442C4721.15 -401.404 4693.93 -401.681 4676.96 -385.06L4690.96 -370.775ZM4396.94 -82.6686L4690.96 -370.775L4676.96 -385.06L4382.94 -96.9536L4396.94 -82.6686ZM4021.16 -377.579L4309.27 -83.5593L4323.55 -97.557L4035.44 -391.577L4021.16 -377.579ZM3988.63 -377.91C3997.71 -386.8 4012.27 -386.652 4021.16 -377.579L4035.44 -391.577C4018.82 -408.539 3991.6 -408.816 3974.64 -392.195L3988.63 -377.91ZM3825.72 -218.271L3988.63 -377.91L3974.64 -392.195L3811.72 -232.556L3825.72 -218.271ZM4382.94 -96.9536C4366.38 -80.7191 4339.79 -80.9892 4323.55 -97.557L4309.27 -83.5593C4333.23 -59.1021 4372.49 -58.7032 4396.94 -82.6686L4382.94 -96.9536ZM4602.17 186.781C4585.94 170.214 4586.21 143.622 4602.77 127.387L4588.78 113.102C4564.32 137.068 4563.92 176.322 4587.89 200.779L4602.17 186.781ZM4322.53 410.181C4339.09 393.946 4365.68 394.217 4381.92 410.784L4396.2 396.787C4372.24 372.329 4332.98 371.931 4308.53 395.896L4322.53 410.181ZM4103.3 126.446C4119.53 143.014 4119.26 169.605 4102.7 185.84L4116.69 200.125C4141.15 176.16 4141.55 136.906 4117.58 112.448L4103.3 126.446Z" fill="white" mask="url(#path-12-inside-4_102_2)"/>
<mask id="path-14-inside-5_102_2" fill="white">
<path fill-rule="evenodd" clip-rule="evenodd" d="M2141.81 1350.22C2128.79 1362.98 2128.58 1383.87 2141.33 1396.89L2433.53 1695.08C2453.63 1715.6 2453.3 1748.52 2432.78 1768.62L2112.33 2082.62C2099.31 2095.38 2099.1 2116.27 2111.86 2129.29L2271.5 2292.21C2284.25 2305.22 2305.15 2305.44 2318.16 2292.68L2638.61 1978.68C2659.13 1958.58 2692.05 1958.91 2712.15 1979.42L3005.71 2279.01C3018.46 2292.02 3039.36 2292.24 3052.37 2279.48L3215.29 2119.84C3228.31 2107.09 3228.52 2086.19 3215.76 2073.18L2918.12 1769.42C2898.02 1748.91 2898.35 1715.98 2918.86 1695.88L3212.88 1407.78C3225.9 1395.02 3226.11 1374.13 3213.36 1361.11L3053.72 1198.19C3040.96 1185.18 3020.07 1184.96 3007.05 1197.72L2713.03 1485.83C2692.52 1505.93 2659.6 1505.59 2639.5 1485.08L2351.39 1191.06C2338.64 1178.04 2317.74 1177.83 2304.72 1190.58L2141.81 1350.22Z"/>
</mask>
<path d="M2141.33 1396.89L2134.19 1403.89L2134.19 1403.89L2141.33 1396.89ZM2111.86 2129.29L2104.71 2136.29L2111.86 2129.29ZM2271.5 2292.21L2278.64 2285.21L2271.5 2292.21ZM2318.16 2292.68L2325.16 2299.82L2318.16 2292.68ZM3213.36 1361.11L3220.5 1354.11L3213.36 1361.11ZM3053.72 1198.19L3046.58 1205.19L3053.72 1198.19ZM2638.61 1978.68L2645.61 1985.82L2638.61 1978.68ZM2433.53 1695.08L2426.39 1702.08L2426.39 1702.08L2433.53 1695.08ZM2148.48 1389.89C2139.59 1380.82 2139.73 1366.26 2148.81 1357.37L2134.81 1343.08C2117.85 1359.7 2117.57 1386.93 2134.19 1403.89L2148.48 1389.89ZM2440.67 1688.08L2148.48 1389.89L2134.19 1403.89L2426.39 1702.08L2440.67 1688.08ZM2119.33 2089.77L2439.78 1775.76L2425.78 1761.48L2105.33 2075.48L2119.33 2089.77ZM2119 2122.29C2110.11 2113.22 2110.26 2098.66 2119.33 2089.77L2105.33 2075.48C2088.37 2092.1 2088.09 2119.33 2104.71 2136.29L2119 2122.29ZM2278.64 2285.21L2119 2122.29L2104.71 2136.29L2264.35 2299.21L2278.64 2285.21ZM2311.16 2285.54C2302.09 2294.43 2287.53 2294.28 2278.64 2285.21L2264.35 2299.21C2280.98 2316.17 2308.2 2316.44 2325.16 2299.82L2311.16 2285.54ZM2631.62 1971.53L2311.16 2285.54L2325.16 2299.82L2645.61 1985.82L2631.62 1971.53ZM3012.85 2272.01L2719.29 1972.42L2705.01 1986.42L2998.57 2286.01L3012.85 2272.01ZM3045.38 2272.34C3036.3 2281.23 3021.74 2281.08 3012.85 2272.01L2998.57 2286.01C3015.19 2302.97 3042.41 2303.24 3059.37 2286.62L3045.38 2272.34ZM3208.29 2112.7L3045.38 2272.34L3059.37 2286.62L3222.29 2126.98L3208.29 2112.7ZM3208.62 2080.17C3217.51 2089.25 3217.36 2103.81 3208.29 2112.7L3222.29 2126.98C3239.25 2110.36 3239.53 2083.14 3222.91 2066.18L3208.62 2080.17ZM2910.97 1776.42L3208.62 2080.17L3222.91 2066.18L2925.26 1762.42L2910.97 1776.42ZM3205.89 1400.63L2911.87 1688.74L2925.86 1703.02L3219.88 1414.92L3205.89 1400.63ZM3206.22 1368.11C3215.11 1377.18 3214.96 1391.74 3205.89 1400.63L3219.88 1414.92C3236.85 1398.3 3237.12 1371.07 3220.5 1354.11L3206.22 1368.11ZM3046.58 1205.19L3206.22 1368.11L3220.5 1354.11L3060.86 1191.19L3046.58 1205.19ZM3014.05 1204.86C3023.12 1195.97 3037.69 1196.12 3046.58 1205.19L3060.86 1191.19C3044.24 1174.23 3017.02 1173.96 3000.05 1190.58L3014.05 1204.86ZM2720.03 1492.97L3014.05 1204.86L3000.05 1190.58L2706.03 1478.68L2720.03 1492.97ZM2344.25 1198.06L2632.35 1492.08L2646.64 1478.08L2358.53 1184.06L2344.25 1198.06ZM2311.72 1197.73C2320.8 1188.84 2335.36 1188.98 2344.25 1198.06L2358.53 1184.06C2341.91 1167.1 2314.69 1166.82 2297.73 1183.44L2311.72 1197.73ZM2148.81 1357.37L2311.72 1197.73L2297.73 1183.44L2134.81 1343.08L2148.81 1357.37ZM2706.03 1478.68C2689.47 1494.92 2662.87 1494.65 2646.64 1478.08L2632.35 1492.08C2656.32 1516.53 2695.57 1516.93 2720.03 1492.97L2706.03 1478.68ZM2925.26 1762.42C2909.02 1745.85 2909.3 1719.26 2925.86 1703.02L2911.87 1688.74C2887.41 1712.71 2887.01 1751.96 2910.97 1776.42L2925.26 1762.42ZM2645.61 1985.82C2662.18 1969.58 2688.77 1969.85 2705.01 1986.42L2719.29 1972.42C2695.33 1947.97 2656.07 1947.57 2631.62 1971.53L2645.61 1985.82ZM2426.39 1702.08C2442.62 1718.65 2442.35 1745.24 2425.78 1761.48L2439.78 1775.76C2464.24 1751.8 2464.64 1712.54 2440.67 1688.08L2426.39 1702.08Z" fill="white" mask="url(#path-14-inside-5_102_2)"/>
<mask id="path-16-inside-6_102_2" fill="white">
<path fill-rule="evenodd" clip-rule="evenodd" d="M1214.73 970.435C1201.72 983.191 1201.5 1004.08 1214.26 1017.1L1506.45 1315.29C1526.55 1335.81 1526.22 1368.73 1505.71 1388.83L1185.26 1702.84C1172.24 1715.59 1172.03 1736.49 1184.78 1749.5L1344.42 1912.42C1357.18 1925.44 1378.07 1925.65 1391.09 1912.89L1711.54 1598.89C1732.05 1578.79 1764.97 1579.12 1785.07 1599.63L2078.63 1899.22C2091.39 1912.24 2112.28 1912.45 2125.3 1899.69L2288.22 1740.05C2301.23 1727.3 2301.45 1706.4 2288.69 1693.39L1991.04 1389.63C1970.94 1369.12 1971.28 1336.19 1991.79 1316.09L2285.81 1027.99C2298.83 1015.23 2299.04 994.338 2286.28 981.321L2126.64 818.405C2113.89 805.387 2093 805.175 2079.98 817.931L1785.96 1106.04C1765.44 1126.14 1732.52 1125.8 1712.42 1105.29L1424.32 811.27C1411.56 798.252 1390.67 798.04 1377.65 810.796L1214.73 970.435Z"/>
</mask>
<path d="M1214.26 1017.1L1207.12 1024.1L1214.26 1017.1ZM1184.78 1749.5L1191.92 1742.5L1184.78 1749.5ZM1344.42 1912.42L1337.28 1919.42L1344.42 1912.42ZM1391.09 1912.89L1384.09 1905.75L1391.09 1912.89ZM2078.63 1899.22L2071.49 1906.22L2078.63 1899.22ZM2288.69 1693.39L2281.55 1700.39L2288.69 1693.39ZM2285.81 1027.99L2278.81 1020.84L2285.81 1027.99ZM2079.98 817.931L2072.98 810.788L2079.98 817.931ZM1424.32 811.27L1417.17 818.269L1424.32 811.27ZM1712.42 1105.29L1705.28 1112.29L1712.42 1105.29ZM1991.04 1389.63L1983.9 1396.63L1991.04 1389.63ZM1991.79 1316.09L1984.79 1308.95L1991.79 1316.09ZM1711.54 1598.89L1704.54 1591.74L1711.54 1598.89ZM1785.07 1599.63L1777.93 1606.63L1785.07 1599.63ZM1506.45 1315.29L1499.31 1322.29L1506.45 1315.29ZM1221.4 1010.1C1212.51 1001.03 1212.66 986.468 1221.73 977.577L1207.73 963.292C1190.77 979.913 1190.5 1007.14 1207.12 1024.1L1221.4 1010.1ZM1513.6 1308.3L1221.4 1010.1L1207.12 1024.1L1499.31 1322.29L1513.6 1308.3ZM1192.26 1709.98L1512.71 1395.97L1498.71 1381.69L1178.26 1695.69L1192.26 1709.98ZM1191.92 1742.5C1183.03 1733.43 1183.18 1718.87 1192.26 1709.98L1178.26 1695.69C1161.3 1712.31 1161.02 1739.54 1177.64 1756.5L1191.92 1742.5ZM1351.56 1905.42L1191.92 1742.5L1177.64 1756.5L1337.28 1919.42L1351.56 1905.42ZM1384.09 1905.75C1375.02 1914.64 1360.45 1914.49 1351.56 1905.42L1337.28 1919.42C1353.9 1936.38 1381.12 1936.66 1398.09 1920.04L1384.09 1905.75ZM1704.54 1591.74L1384.09 1905.75L1398.09 1920.04L1718.54 1606.03L1704.54 1591.74ZM2085.78 1892.22L1792.22 1592.64L1777.93 1606.63L2071.49 1906.22L2085.78 1892.22ZM2118.3 1892.55C2109.23 1901.44 2094.67 1901.29 2085.78 1892.22L2071.49 1906.22C2088.11 1923.18 2115.34 1923.46 2132.3 1906.84L2118.3 1892.55ZM2281.22 1732.91L2118.3 1892.55L2132.3 1906.84L2295.21 1747.2L2281.22 1732.91ZM2281.55 1700.39C2290.44 1709.46 2290.29 1724.02 2281.22 1732.91L2295.21 1747.2C2312.18 1730.57 2312.45 1703.35 2295.83 1686.39L2281.55 1700.39ZM1983.9 1396.63L2281.55 1700.39L2295.83 1686.39L1998.18 1382.63L1983.9 1396.63ZM2278.81 1020.84L1984.79 1308.95L1998.79 1323.24L2292.81 1035.13L2278.81 1020.84ZM2279.14 988.32C2288.03 997.392 2287.88 1011.95 2278.81 1020.84L2292.81 1035.13C2309.77 1018.51 2310.05 991.284 2293.43 974.322L2279.14 988.32ZM2119.5 825.404L2279.14 988.32L2293.43 974.322L2133.79 811.406L2119.5 825.404ZM2086.98 825.073C2096.05 816.183 2110.61 816.331 2119.5 825.404L2133.79 811.406C2117.17 794.444 2089.94 794.167 2072.98 810.788L2086.98 825.073ZM1792.96 1113.18L2086.98 825.073L2072.98 810.788L1778.96 1098.89L1792.96 1113.18ZM1417.17 818.269L1705.28 1112.29L1719.56 1098.29L1431.46 804.271L1417.17 818.269ZM1384.65 817.938C1393.72 809.048 1408.28 809.196 1417.17 818.269L1431.46 804.271C1414.84 787.309 1387.61 787.032 1370.65 803.653L1384.65 817.938ZM1221.73 977.577L1384.65 817.938L1370.65 803.653L1207.73 963.292L1221.73 977.577ZM1778.96 1098.89C1762.39 1115.13 1735.8 1114.86 1719.56 1098.29L1705.28 1112.29C1729.24 1136.75 1768.5 1137.14 1792.96 1113.18L1778.96 1098.89ZM1998.18 1382.63C1981.95 1366.06 1982.22 1339.47 1998.79 1323.24L1984.79 1308.95C1960.33 1332.92 1959.93 1372.17 1983.9 1396.63L1998.18 1382.63ZM1718.54 1606.03C1735.11 1589.8 1761.7 1590.07 1777.93 1606.63L1792.22 1592.64C1768.25 1568.18 1729 1567.78 1704.54 1591.74L1718.54 1606.03ZM1499.31 1322.29C1515.55 1338.86 1515.28 1365.45 1498.71 1381.69L1512.71 1395.97C1537.16 1372.01 1537.56 1332.75 1513.6 1308.3L1499.31 1322.29Z" fill="white" mask="url(#path-16-inside-6_102_2)"/>
<mask id="path-18-inside-7_102_2" fill="white">
<path fill-rule="evenodd" clip-rule="evenodd" d="M2852.69 -550.668C2839.68 -537.912 2839.46 -517.019 2852.22 -504.001L3144.42 -205.808C3164.52 -185.295 3164.18 -152.372 3143.67 -132.273L2823.22 181.733C2810.2 194.489 2809.99 215.382 2822.74 228.4L2982.38 391.316C2995.14 404.333 3016.03 404.546 3029.05 391.79L3349.5 77.7845C3370.01 57.6846 3402.94 58.019 3423.04 78.5315L3716.59 378.116C3729.35 391.133 3750.24 391.346 3763.26 378.59L3926.18 218.951C3939.19 206.195 3939.41 185.302 3926.65 172.284L3629 -131.473C3608.9 -151.986 3609.24 -184.909 3629.75 -205.009L3923.77 -493.115C3936.79 -505.871 3937 -526.764 3924.24 -539.782L3764.61 -702.698C3751.85 -715.716 3730.96 -715.928 3717.94 -703.172L3423.92 -415.066C3403.41 -394.966 3370.48 -395.3 3350.38 -415.813L3062.28 -709.833C3049.52 -722.85 3028.63 -723.063 3015.61 -710.307L2852.69 -550.668Z"/>
</mask>
<path d="M3029.05 391.79L3036.05 398.933L3029.05 391.79ZM3763.26 378.59L3770.26 385.733L3763.26 378.59ZM3926.18 218.951L3919.18 211.808L3926.18 218.951ZM3717.94 -703.172L3724.94 -696.03L3717.94 -703.172ZM3349.5 77.7845L3356.5 84.9271L3349.5 77.7845ZM2859.36 -511C2850.47 -520.073 2850.62 -534.635 2859.69 -543.525L2845.7 -557.81C2828.73 -541.189 2828.46 -513.964 2845.08 -497.002L2859.36 -511ZM3151.56 -212.807L2859.36 -511L2845.08 -497.002L3137.27 -198.809L3151.56 -212.807ZM2830.22 188.876L3150.67 -125.13L3136.67 -139.415L2816.22 174.591L2830.22 188.876ZM2829.89 221.401C2821 212.328 2821.14 197.766 2830.22 188.876L2816.22 174.591C2799.26 191.212 2798.98 218.436 2815.6 235.399L2829.89 221.401ZM2989.52 384.317L2829.89 221.401L2815.6 235.399L2975.24 398.315L2989.52 384.317ZM3022.05 384.647C3012.98 393.538 2998.42 393.39 2989.52 384.317L2975.24 398.315C2991.86 415.277 3019.09 415.554 3036.05 398.933L3022.05 384.647ZM3342.5 70.642L3022.05 384.647L3036.05 398.933L3356.5 84.9271L3342.5 70.642ZM3723.74 371.117L3430.18 71.5327L3415.89 85.5304L3709.45 385.115L3723.74 371.117ZM3756.26 371.447C3747.19 380.338 3732.63 380.19 3723.74 371.117L3709.45 385.115C3726.07 402.077 3753.3 402.354 3770.26 385.733L3756.26 371.447ZM3919.18 211.808L3756.26 371.447L3770.26 385.733L3933.18 226.093L3919.18 211.808ZM3919.51 179.283C3928.4 188.356 3928.25 202.918 3919.18 211.808L3933.18 226.093C3950.14 209.472 3950.41 182.248 3933.79 165.285L3919.51 179.283ZM3621.86 -124.474L3919.51 179.283L3933.79 165.285L3636.15 -138.472L3621.86 -124.474ZM3916.77 -500.258L3622.75 -212.151L3636.75 -197.866L3930.77 -485.973L3916.77 -500.258ZM3917.1 -532.783C3925.99 -523.71 3925.84 -509.148 3916.77 -500.258L3930.77 -485.973C3947.73 -502.594 3948.01 -529.819 3931.39 -546.781L3917.1 -532.783ZM3757.46 -695.699L3917.1 -532.783L3931.39 -546.781L3771.75 -709.697L3757.46 -695.699ZM3724.94 -696.03C3734.01 -704.92 3748.57 -704.772 3757.46 -695.699L3771.75 -709.697C3755.13 -726.659 3727.9 -726.936 3710.94 -710.315L3724.94 -696.03ZM3430.92 -407.923L3724.94 -696.03L3710.94 -710.315L3416.92 -422.208L3430.92 -407.923ZM3055.13 -702.834L3343.24 -408.814L3357.53 -422.812L3069.42 -716.832L3055.13 -702.834ZM3022.61 -703.164C3031.68 -712.055 3046.24 -711.907 3055.13 -702.834L3069.42 -716.832C3052.8 -733.794 3025.57 -734.07 3008.61 -717.449L3022.61 -703.164ZM2859.69 -543.525L3022.61 -703.164L3008.61 -717.449L2845.7 -557.81L2859.69 -543.525ZM3416.92 -422.208C3400.35 -405.974 3373.76 -406.244 3357.53 -422.812L3343.24 -408.814C3367.21 -384.357 3406.46 -383.958 3430.92 -407.923L3416.92 -422.208ZM3636.15 -138.472C3619.91 -155.04 3620.18 -181.632 3636.75 -197.866L3622.75 -212.151C3598.29 -188.186 3597.89 -148.932 3621.86 -124.474L3636.15 -138.472ZM3356.5 84.9271C3373.07 68.6925 3399.66 68.9626 3415.89 85.5304L3430.18 71.5327C3406.21 47.0754 3366.96 46.6767 3342.5 70.642L3356.5 84.9271ZM3137.27 -198.809C3153.51 -182.241 3153.24 -155.65 3136.67 -139.415L3150.67 -125.13C3175.12 -149.095 3175.52 -188.35 3151.56 -212.807L3137.27 -198.809Z" fill="white" mask="url(#path-18-inside-7_102_2)"/>
<mask id="path-20-inside-8_102_2" fill="white">
<path fill-rule="evenodd" clip-rule="evenodd" d="M3072.99 1732.41C3059.98 1745.16 3059.76 1766.06 3072.52 1779.07L3364.71 2077.27C3384.81 2097.78 3384.48 2130.7 3363.97 2150.8L3043.52 2464.81C3030.5 2477.56 3030.29 2498.46 3043.04 2511.48L3202.68 2674.39C3215.44 2687.41 3236.33 2687.62 3249.35 2674.87L3569.8 2360.86C3590.31 2340.76 3623.23 2341.09 3643.33 2361.61L3936.89 2661.19C3949.65 2674.21 3970.54 2674.42 3983.56 2661.67L4146.48 2502.03C4159.49 2489.27 4159.71 2468.38 4146.95 2455.36L3849.3 2151.6C3829.2 2131.09 3829.54 2098.17 3850.05 2078.07L4144.07 1789.96C4157.09 1777.2 4157.3 1756.31 4144.54 1743.29L3984.9 1580.38C3972.15 1567.36 3951.25 1567.15 3938.24 1579.9L3644.22 1868.01C3623.7 1888.11 3590.78 1887.78 3570.68 1867.26L3282.58 1573.24C3269.82 1560.23 3248.93 1560.01 3235.91 1572.77L3072.99 1732.41Z"/>
</mask>
<path d="M3043.52 2464.81L3036.52 2457.67L3043.52 2464.81ZM3249.35 2674.87L3256.35 2682.01L3249.35 2674.87ZM3569.8 2360.86L3576.8 2368L3569.8 2360.86ZM3079.66 1772.08C3070.77 1763 3070.92 1748.44 3079.99 1739.55L3065.99 1725.27C3049.03 1741.89 3048.76 1769.11 3065.38 1786.07L3079.66 1772.08ZM3371.86 2070.27L3079.66 1772.08L3065.38 1786.07L3357.57 2084.27L3371.86 2070.27ZM3050.51 2471.95L3370.97 2157.95L3356.97 2143.66L3036.52 2457.67L3050.51 2471.95ZM3050.18 2504.48C3041.29 2495.4 3041.44 2480.84 3050.51 2471.95L3036.52 2457.67C3019.55 2474.29 3019.28 2501.51 3035.9 2518.47L3050.18 2504.48ZM3209.82 2667.39L3050.18 2504.48L3035.9 2518.47L3195.54 2681.39L3209.82 2667.39ZM3242.35 2667.72C3233.28 2676.61 3218.71 2676.47 3209.82 2667.39L3195.54 2681.39C3212.16 2698.35 3239.38 2698.63 3256.35 2682.01L3242.35 2667.72ZM3562.8 2353.72L3242.35 2667.72L3256.35 2682.01L3576.8 2368L3562.8 2353.72ZM3944.04 2654.19L3650.48 2354.61L3636.19 2368.61L3929.75 2668.19L3944.04 2654.19ZM3976.56 2654.52C3967.49 2663.41 3952.93 2663.27 3944.04 2654.19L3929.75 2668.19C3946.37 2685.15 3973.6 2685.43 3990.56 2668.81L3976.56 2654.52ZM4139.48 2494.88L3976.56 2654.52L3990.56 2668.81L4153.47 2509.17L4139.48 2494.88ZM4139.81 2462.36C4148.7 2471.43 4148.55 2485.99 4139.48 2494.88L4153.47 2509.17C4170.44 2492.55 4170.71 2465.32 4154.09 2448.36L4139.81 2462.36ZM3842.16 2158.6L4139.81 2462.36L4154.09 2448.36L3856.44 2144.6L3842.16 2158.6ZM4137.07 1782.82L3843.05 2070.92L3857.05 2085.21L4151.07 1797.1L4137.07 1782.82ZM4137.4 1750.29C4146.29 1759.37 4146.14 1773.93 4137.07 1782.82L4151.07 1797.1C4168.03 1780.48 4168.31 1753.26 4151.69 1736.29L4137.4 1750.29ZM3977.76 1587.38L4137.4 1750.29L4151.69 1736.29L3992.05 1573.38L3977.76 1587.38ZM3945.24 1587.05C3954.31 1578.16 3968.87 1578.3 3977.76 1587.38L3992.05 1573.38C3975.43 1556.42 3948.2 1556.14 3931.24 1572.76L3945.24 1587.05ZM3651.22 1875.15L3945.24 1587.05L3931.24 1572.76L3637.22 1860.87L3651.22 1875.15ZM3275.43 1580.24L3563.54 1874.26L3577.82 1860.26L3289.72 1566.24L3275.43 1580.24ZM3242.91 1579.91C3251.98 1571.02 3266.54 1571.17 3275.43 1580.24L3289.72 1566.24C3273.1 1549.28 3245.87 1549.01 3228.91 1565.63L3242.91 1579.91ZM3079.99 1739.55L3242.91 1579.91L3228.91 1565.63L3065.99 1725.27L3079.99 1739.55ZM3637.22 1860.87C3620.65 1877.1 3594.06 1876.83 3577.82 1860.26L3563.54 1874.26C3587.5 1898.72 3626.76 1899.12 3651.22 1875.15L3637.22 1860.87ZM3856.44 2144.6C3840.21 2128.04 3840.48 2101.44 3857.05 2085.21L3843.05 2070.92C3818.59 2094.89 3818.19 2134.14 3842.16 2158.6L3856.44 2144.6ZM3576.8 2368C3593.37 2351.77 3619.96 2352.04 3636.19 2368.61L3650.48 2354.61C3626.51 2330.15 3587.26 2329.75 3562.8 2353.72L3576.8 2368ZM3357.57 2084.27C3373.81 2100.83 3373.54 2127.43 3356.97 2143.66L3370.97 2157.95C3395.42 2133.98 3395.82 2094.73 3371.86 2070.27L3357.57 2084.27Z" fill="white" mask="url(#path-20-inside-8_102_2)"/>
<mask id="path-22-inside-9_102_2" fill="white">
<path fill-rule="evenodd" clip-rule="evenodd" d="M4000.07 2104.41C3987.05 2117.16 3986.84 2138.05 3999.59 2151.07L4291.79 2449.27C4311.89 2469.78 4311.55 2502.7 4291.04 2522.8L3970.59 2836.81C3957.57 2849.56 3957.36 2870.46 3970.12 2883.47L4129.76 3046.39C4142.51 3059.41 4163.4 3059.62 4176.42 3046.86L4496.87 2732.86C4517.39 2712.76 4550.31 2713.09 4570.41 2733.61L4863.97 3033.19C4876.72 3046.21 4897.62 3046.42 4910.63 3033.66L5073.55 2874.02C5086.57 2861.27 5086.78 2840.38 5074.02 2827.36L4776.38 2523.6C4756.28 2503.09 4756.61 2470.16 4777.12 2450.07L5071.14 2161.96C5084.16 2149.2 5084.37 2128.31 5071.62 2115.29L4911.98 1952.38C4899.22 1939.36 4878.33 1939.15 4865.31 1951.9L4571.29 2240.01C4550.78 2260.11 4517.86 2259.77 4497.76 2239.26L4209.65 1945.24C4196.89 1932.22 4176 1932.01 4162.98 1944.77L4000.07 2104.41Z"/>
</mask>
<path d="M3999.59 2151.07L3992.45 2158.07L3992.45 2158.07L3999.59 2151.07ZM4000.07 2104.41L4007.07 2111.55L4000.07 2104.41ZM3970.12 2883.47L3962.97 2890.47L3970.12 2883.47ZM4129.76 3046.39L4136.9 3039.39L4129.76 3046.39ZM5074.02 2827.36L5066.88 2834.36L5074.02 2827.36ZM5071.62 2115.29L5078.76 2108.29L5071.62 2115.29ZM4911.98 1952.38L4904.84 1959.37L4911.98 1952.38ZM4209.65 1945.24L4202.51 1952.24L4209.65 1945.24ZM4162.98 1944.77L4155.98 1937.62L4162.98 1944.77ZM4497.76 2239.26L4490.61 2246.26L4497.76 2239.26ZM4776.38 2523.6L4769.23 2530.6L4776.38 2523.6ZM4291.79 2449.27L4284.65 2456.26L4284.65 2456.26L4291.79 2449.27ZM4006.74 2144.07C3997.85 2135 3997.99 2120.44 4007.07 2111.55L3993.07 2097.26C3976.11 2113.88 3975.83 2141.11 3992.45 2158.07L4006.74 2144.07ZM4298.93 2442.27L4006.74 2144.07L3992.45 2158.07L4284.65 2456.26L4298.93 2442.27ZM3977.59 2843.95L4298.04 2529.94L4284.04 2515.66L3963.59 2829.66L3977.59 2843.95ZM3977.26 2876.47C3968.37 2867.4 3968.52 2852.84 3977.59 2843.95L3963.59 2829.66C3946.63 2846.29 3946.35 2873.51 3962.97 2890.47L3977.26 2876.47ZM4136.9 3039.39L3977.26 2876.47L3962.97 2890.47L4122.61 3053.39L4136.9 3039.39ZM4169.42 3039.72C4160.35 3048.61 4145.79 3048.46 4136.9 3039.39L4122.61 3053.39C4139.23 3070.35 4166.46 3070.63 4183.42 3054.01L4169.42 3039.72ZM4489.87 2725.72L4169.42 3039.72L4183.42 3054.01L4503.87 2740L4489.87 2725.72ZM4871.11 3026.19L4577.55 2726.61L4563.27 2740.6L4856.82 3040.19L4871.11 3026.19ZM4903.63 3026.52C4894.56 3035.41 4880 3035.26 4871.11 3026.19L4856.82 3040.19C4873.45 3057.15 4900.67 3057.43 4917.63 3040.81L4903.63 3026.52ZM5066.55 2866.88L4903.63 3026.52L4917.63 3040.81L5080.55 2881.17L5066.55 2866.88ZM5066.88 2834.36C5075.77 2843.43 5075.62 2857.99 5066.55 2866.88L5080.55 2881.17C5097.51 2864.55 5097.79 2837.32 5081.17 2820.36L5066.88 2834.36ZM4769.23 2530.6L5066.88 2834.36L5081.17 2820.36L4783.52 2516.6L4769.23 2530.6ZM5064.14 2154.82L4770.12 2442.92L4784.12 2457.21L5078.14 2169.1L5064.14 2154.82ZM5064.47 2122.29C5073.37 2131.36 5073.22 2145.93 5064.14 2154.82L5078.14 2169.1C5095.1 2152.48 5095.38 2125.26 5078.76 2108.29L5064.47 2122.29ZM4904.84 1959.37L5064.47 2122.29L5078.76 2108.29L4919.12 1945.38L4904.84 1959.37ZM4872.31 1959.04C4881.38 1950.15 4895.95 1950.3 4904.84 1959.37L4919.12 1945.38C4902.5 1928.41 4875.27 1928.14 4858.31 1944.76L4872.31 1959.04ZM4578.29 2247.15L4872.31 1959.04L4858.31 1944.76L4564.29 2232.87L4578.29 2247.15ZM4202.51 1952.24L4490.61 2246.26L4504.9 2232.26L4216.79 1938.24L4202.51 1952.24ZM4169.98 1951.91C4179.05 1943.02 4193.62 1943.17 4202.51 1952.24L4216.79 1938.24C4200.17 1921.28 4172.95 1921 4155.98 1937.62L4169.98 1951.91ZM4007.07 2111.55L4169.98 1951.91L4155.98 1937.62L3993.07 2097.26L4007.07 2111.55ZM4564.29 2232.87C4547.72 2249.1 4521.13 2248.83 4504.9 2232.26L4490.61 2246.26C4514.58 2270.72 4553.83 2271.12 4578.29 2247.15L4564.29 2232.87ZM4783.52 2516.6C4767.28 2500.03 4767.55 2473.44 4784.12 2457.21L4770.12 2442.92C4745.67 2466.89 4745.27 2506.14 4769.23 2530.6L4783.52 2516.6ZM4503.87 2740C4520.44 2723.77 4547.03 2724.04 4563.27 2740.6L4577.55 2726.61C4553.59 2702.15 4514.33 2701.75 4489.87 2725.72L4503.87 2740ZM4284.65 2456.26C4300.88 2472.83 4300.61 2499.42 4284.04 2515.66L4298.04 2529.94C4322.5 2505.98 4322.9 2466.72 4298.93 2442.27L4284.65 2456.26Z" fill="white" mask="url(#path-22-inside-9_102_2)"/>
<mask id="path-24-inside-10_102_2" fill="white">
<path fill-rule="evenodd" clip-rule="evenodd" d="M2710.73 2698.43C2697.72 2711.19 2697.5 2732.08 2710.26 2745.1L3002.45 3043.29C3022.55 3063.81 3022.22 3096.73 3001.71 3116.83L2681.26 3430.84C2668.24 3443.59 2668.03 3464.49 2680.78 3477.5L2840.42 3640.42C2853.18 3653.44 2874.07 3653.65 2887.09 3640.89L3207.54 3326.89C3228.05 3306.79 3260.97 3307.12 3281.07 3327.63L3574.63 3627.22C3587.39 3640.24 3608.28 3640.45 3621.3 3627.69L3784.22 3468.05C3797.23 3455.3 3797.45 3434.4 3784.69 3421.39L3487.04 3117.63C3466.94 3097.12 3467.28 3064.19 3487.79 3044.09L3781.81 2755.99C3794.83 2743.23 3795.04 2722.34 3782.28 2709.32L3622.64 2546.4C3609.89 2533.39 3589 2533.17 3575.98 2545.93L3281.96 2834.04C3261.44 2854.14 3228.52 2853.8 3208.42 2833.29L2920.32 2539.27C2907.56 2526.25 2886.67 2526.04 2873.65 2538.8L2710.73 2698.43Z"/>
</mask>
<path d="M2710.26 2745.1L2717.4 2738.1L2710.26 2745.1ZM2887.09 3640.89L2880.09 3633.75L2887.09 3640.89ZM3621.3 3627.69L3614.3 3620.55L3621.3 3627.69ZM3784.22 3468.05L3791.21 3475.2L3784.22 3468.05ZM3781.81 2755.99L3788.81 2763.13L3781.81 2755.99ZM3782.28 2709.32L3775.14 2716.32L3782.28 2709.32ZM3622.64 2546.4L3629.79 2539.41L3622.64 2546.4ZM3487.79 3044.09L3494.79 3051.24L3487.79 3044.09ZM3207.54 3326.89L3200.54 3319.74L3207.54 3326.89ZM3002.45 3043.29L3009.6 3036.3L3002.45 3043.29ZM2717.4 2738.1C2708.51 2729.03 2708.66 2714.47 2717.73 2705.58L2703.73 2691.29C2686.77 2707.91 2686.5 2735.14 2703.12 2752.1L2717.4 2738.1ZM3009.6 3036.3L2717.4 2738.1L2703.12 2752.1L2995.31 3050.29L3009.6 3036.3ZM2688.26 3437.98L3008.71 3123.97L2994.71 3109.69L2674.26 3423.69L2688.26 3437.98ZM2687.92 3470.5C2679.03 3461.43 2679.18 3446.87 2688.26 3437.98L2674.26 3423.69C2657.3 3440.31 2657.02 3467.54 2673.64 3484.5L2687.92 3470.5ZM2847.56 3633.42L2687.92 3470.5L2673.64 3484.5L2833.28 3647.42L2847.56 3633.42ZM2880.09 3633.75C2871.02 3642.64 2856.45 3642.49 2847.56 3633.42L2833.28 3647.42C2849.9 3664.38 2877.12 3664.66 2894.09 3648.04L2880.09 3633.75ZM3200.54 3319.74L2880.09 3633.75L2894.09 3648.04L3214.54 3334.03L3200.54 3319.74ZM3581.78 3620.22L3288.22 3320.64L3273.93 3334.63L3567.49 3634.22L3581.78 3620.22ZM3614.3 3620.55C3605.23 3629.44 3590.67 3629.29 3581.78 3620.22L3567.49 3634.22C3584.11 3651.18 3611.34 3651.46 3628.3 3634.84L3614.3 3620.55ZM3777.22 3460.91L3614.3 3620.55L3628.3 3634.84L3791.21 3475.2L3777.22 3460.91ZM3777.55 3428.39C3786.44 3437.46 3786.29 3452.02 3777.22 3460.91L3791.21 3475.2C3808.18 3458.57 3808.45 3431.35 3791.83 3414.39L3777.55 3428.39ZM3479.9 3124.63L3777.55 3428.39L3791.83 3414.39L3494.18 3110.63L3479.9 3124.63ZM3774.81 2748.84L3480.79 3036.95L3494.79 3051.24L3788.81 2763.13L3774.81 2748.84ZM3775.14 2716.32C3784.03 2725.39 3783.88 2739.95 3774.81 2748.84L3788.81 2763.13C3805.77 2746.51 3806.05 2719.28 3789.43 2702.32L3775.14 2716.32ZM3615.5 2553.4L3775.14 2716.32L3789.43 2702.32L3629.79 2539.41L3615.5 2553.4ZM3582.98 2553.07C3592.05 2544.18 3606.61 2544.33 3615.5 2553.4L3629.79 2539.41C3613.17 2522.44 3585.94 2522.17 3568.98 2538.79L3582.98 2553.07ZM3288.96 2841.18L3582.98 2553.07L3568.98 2538.79L3274.96 2826.89L3288.96 2841.18ZM2913.17 2546.27L3201.28 2840.29L3215.56 2826.29L2927.46 2532.27L2913.17 2546.27ZM2880.65 2545.94C2889.72 2537.05 2904.28 2537.2 2913.17 2546.27L2927.46 2532.27C2910.84 2515.31 2883.61 2515.03 2866.65 2531.65L2880.65 2545.94ZM2717.73 2705.58L2880.65 2545.94L2866.65 2531.65L2703.73 2691.29L2717.73 2705.58ZM3274.96 2826.89C3258.39 2843.13 3231.8 2842.86 3215.56 2826.29L3201.28 2840.29C3225.24 2864.75 3264.5 2865.14 3288.96 2841.18L3274.96 2826.89ZM3494.18 3110.63C3477.95 3094.06 3478.22 3067.47 3494.79 3051.24L3480.79 3036.95C3456.33 3060.92 3455.93 3100.17 3479.9 3124.63L3494.18 3110.63ZM3214.54 3334.03C3231.11 3317.8 3257.7 3318.07 3273.93 3334.63L3288.22 3320.64C3264.25 3296.18 3225 3295.78 3200.54 3319.74L3214.54 3334.03ZM2995.31 3050.29C3011.55 3066.86 3011.28 3093.45 2994.71 3109.69L3008.71 3123.97C3033.16 3100.01 3033.56 3060.75 3009.6 3036.3L2995.31 3050.29Z" fill="white" mask="url(#path-24-inside-10_102_2)"/>
<mask id="path-26-inside-11_102_2" fill="white">
<path fill-rule="evenodd" clip-rule="evenodd" d="M4348.69 1177.33C4335.68 1190.09 4335.46 1210.98 4348.22 1224L4640.42 1522.19C4660.52 1542.7 4660.18 1575.63 4639.67 1595.73L4319.22 1909.73C4306.2 1922.49 4305.99 1943.38 4318.74 1956.4L4478.38 2119.32C4491.14 2132.33 4512.03 2132.55 4525.05 2119.79L4845.5 1805.78C4866.01 1785.68 4898.94 1786.02 4919.04 1806.53L5212.59 2106.12C5225.35 2119.13 5246.24 2119.35 5259.26 2106.59L5422.18 1946.95C5435.19 1934.2 5435.41 1913.3 5422.65 1900.28L5125 1596.53C5104.9 1576.01 5105.24 1543.09 5125.75 1522.99L5419.77 1234.88C5432.79 1222.13 5433 1201.24 5420.24 1188.22L5260.61 1025.3C5247.85 1012.28 5226.96 1012.07 5213.94 1024.83L4919.92 1312.93C4899.41 1333.03 4866.48 1332.7 4846.38 1312.19L4558.28 1018.17C4545.52 1005.15 4524.63 1004.94 4511.61 1017.69L4348.69 1177.33Z"/>
</mask>
<path d="M4348.22 1224L4355.36 1217L4348.22 1224ZM4640.42 1522.19L4647.56 1515.19L4640.42 1522.19ZM4355.36 1217C4346.47 1207.93 4346.62 1193.37 4355.69 1184.47L4341.7 1170.19C4324.73 1186.81 4324.46 1214.04 4341.08 1231L4355.36 1217ZM4647.56 1515.19L4355.36 1217L4341.08 1231L4633.27 1529.19L4647.56 1515.19ZM4326.22 1916.88L4646.67 1602.87L4632.67 1588.58L4312.22 1902.59L4326.22 1916.88ZM4325.89 1949.4C4317 1940.33 4317.14 1925.77 4326.22 1916.88L4312.22 1902.59C4295.26 1919.21 4294.98 1946.44 4311.6 1963.4L4325.89 1949.4ZM4485.52 2112.32L4325.89 1949.4L4311.6 1963.4L4471.24 2126.31L4485.52 2112.32ZM4518.05 2112.65C4508.98 2121.54 4494.42 2121.39 4485.52 2112.32L4471.24 2126.31C4487.86 2143.28 4515.09 2143.55 4532.05 2126.93L4518.05 2112.65ZM4838.5 1798.64L4518.05 2112.65L4532.05 2126.93L4852.5 1812.93L4838.5 1798.64ZM5219.74 2099.12L4926.18 1799.53L4911.89 1813.53L5205.45 2113.11L5219.74 2099.12ZM5252.26 2099.45C5243.19 2108.34 5228.63 2108.19 5219.74 2099.12L5205.45 2113.11C5222.07 2130.08 5249.3 2130.35 5266.26 2113.73L5252.26 2099.45ZM5415.18 1939.81L5252.26 2099.45L5266.26 2113.73L5429.18 1954.09L5415.18 1939.81ZM5415.51 1907.28C5424.4 1916.36 5424.25 1930.92 5415.18 1939.81L5429.18 1954.09C5446.14 1937.47 5446.41 1910.25 5429.79 1893.29L5415.51 1907.28ZM5117.86 1603.53L5415.51 1907.28L5429.79 1893.29L5132.15 1589.53L5117.86 1603.53ZM5412.77 1227.74L5118.75 1515.85L5132.75 1530.13L5426.77 1242.03L5412.77 1227.74ZM5413.1 1195.22C5421.99 1204.29 5421.84 1218.85 5412.77 1227.74L5426.77 1242.03C5443.73 1225.41 5444.01 1198.18 5427.39 1181.22L5413.1 1195.22ZM5253.46 1032.3L5413.1 1195.22L5427.39 1181.22L5267.75 1018.3L5253.46 1032.3ZM5220.94 1031.97C5230.01 1023.08 5244.57 1023.23 5253.46 1032.3L5267.75 1018.3C5251.13 1001.34 5223.9 1001.06 5206.94 1017.69L5220.94 1031.97ZM4926.92 1320.08L5220.94 1031.97L5206.94 1017.69L4912.92 1305.79L4926.92 1320.08ZM4551.13 1025.17L4839.24 1319.19L4853.53 1305.19L4565.42 1011.17L4551.13 1025.17ZM4518.61 1024.84C4527.68 1015.95 4542.24 1016.09 4551.13 1025.17L4565.42 1011.17C4548.8 994.206 4521.57 993.93 4504.61 1010.55L4518.61 1024.84ZM4355.69 1184.47L4518.61 1024.84L4504.61 1010.55L4341.7 1170.19L4355.69 1184.47ZM4912.92 1305.79C4896.35 1322.03 4869.76 1321.76 4853.53 1305.19L4839.24 1319.19C4863.21 1343.64 4902.46 1344.04 4926.92 1320.08L4912.92 1305.79ZM5132.15 1589.53C5115.91 1572.96 5116.18 1546.37 5132.75 1530.13L5118.75 1515.85C5094.29 1539.81 5093.89 1579.07 5117.86 1603.53L5132.15 1589.53ZM4852.5 1812.93C4869.07 1796.69 4895.66 1796.96 4911.89 1813.53L4926.18 1799.53C4902.21 1775.08 4862.96 1774.68 4838.5 1798.64L4852.5 1812.93ZM4633.27 1529.19C4649.51 1545.76 4649.24 1572.35 4632.67 1588.58L4646.67 1602.87C4671.12 1578.9 4671.52 1539.65 4647.56 1515.19L4633.27 1529.19Z" fill="white" mask="url(#path-26-inside-11_102_2)"/>
</g>
</g>
</g>
<defs>
<filter id="filter0_f_102_2" x="-1308" y="240" width="3632" height="6171" filterUnits="userSpaceOnUse" color-interpolation-filters="sRGB">
<feFlood flood-opacity="0" result="BackgroundImageFix"/>
<feBlend mode="normal" in="SourceGraphic" in2="BackgroundImageFix" result="shape"/>
<feGaussianBlur stdDeviation="350" result="effect1_foregroundBlur_102_2"/>
</filter>
<filter id="filter1_f_102_2" x="672" y="-2551" width="6232" height="5936" filterUnits="userSpaceOnUse" color-interpolation-filters="sRGB">
<feFlood flood-opacity="0" result="BackgroundImageFix"/>
<feBlend mode="normal" in="SourceGraphic" in2="BackgroundImageFix" result="shape"/>
<feGaussianBlur stdDeviation="1000" result="effect1_foregroundBlur_102_2"/>
</filter>
<filter id="filter2_f_102_2" x="704" y="975" width="6680" height="3647" filterUnits="userSpaceOnUse" color-interpolation-filters="sRGB">
<feFlood flood-opacity="0" result="BackgroundImageFix"/>
<feBlend mode="normal" in="SourceGraphic" in2="BackgroundImageFix" result="shape"/>
<feGaussianBlur stdDeviation="500" result="effect1_foregroundBlur_102_2"/>
</filter>
<filter id="filter3_f_102_2" x="-2988" y="-1783" width="5680" height="2647" filterUnits="userSpaceOnUse" color-interpolation-filters="sRGB">
<feFlood flood-opacity="0" result="BackgroundImageFix"/>
<feBlend mode="normal" in="SourceGraphic" in2="BackgroundImageFix" result="shape"/>
<feGaussianBlur stdDeviation="250" result="effect1_foregroundBlur_102_2"/>
</filter>
<clipPath id="clip0_102_2">
<rect width="4000" height="2328" fill="white"/>
</clipPath>
<clipPath id="clip1_102_2">
<rect width="4000" height="2328" fill="white"/>
</clipPath>
</defs>
</svg>
